<?xml version="1.0" encoding="UTF-8"?>
<svg xmlns="http://www.w3.org/2000/svg" 
     width="1263" height="746" 
     viewBox="0 0 1263 746">
  <!-- NERPG Logo - Vector recreation from potrace -->
  <!-- White elements: molecular graphic + "NEW ENGLAND" text -->
  <g transform="translate(0.000000,746.000000) scale(0.100000,-0.100000)" fill="#FFFFFF">
    <path d="M8950 7230 c-169 -29 -314 -138 -390 -294 -73 -149 -77 -311 -10
-455 17 -35 30 -67 30 -71 0 -4 -630 -518 -1400 -1141 l-1400 -1134 -121 -32
c-67 -17 -138 -34 -159 -38 l-38 -6 -22 68 c-133 419 -501 741 -948 830 -116
23 -336 23 -455 -1 -317 -62 -607 -249 -783 -506 -26 -39 -52 -70 -58 -70 -6
0 -416 216 -911 480 -871 464 -900 480 -899 507 0 15 6 59 13 97 44 256 -141
530 -400 591 -277 65 -549 -85 -641 -353 -32 -94 -32 -240 0 -334 77 -223 278
-368 512 -368 149 0 273 52 382 162 l68 68 907 -484 c592 -315 907 -488 906
-497 -2 -8 -18 -59 -37 -114 -85 -244 -87 -517 -6 -779 18 -55 19 -70 9 -77
-21 -13 -1320 -511 -1323 -507 -2 1 -17 24 -34 49 -59 88 -160 163 -271 201
-93 32 -239 32 -333 0 -222 -76 -368 -277 -368 -507 0 -154 51 -277 160 -385
183 -182 459 -206 680 -59 77 52 132 117 175 204 44 91 58 167 54 283 l-4 95
645 249 c355 137 657 251 673 254 16 4 27 2 27 -4 0 -26 130 -202 209 -281
256 -258 620 -392 982 -361 530 47 963 416 1094 934 18 72 27 91 41 93 11 1
1299 -233 2864 -521 l2845 -523 6 -74 c15 -168 95 -305 233 -397 102 -68 167
-87 301 -87 129 0 195 18 286 76 153 99 235 241 246 424 6 102 -9 179 -54 273
-37 76 -159 198 -235 235 -280 134 -598 24 -730 -253 -17 -36 -32 -66 -33 -68
-3 -3 -5728 1047 -5731 1051 -1 1 -4 59 -6 129 -4 111 -3 128 11 132 15 5
1571 387 1940 477 90 22 164 39 166 37 1 -2 15 -28 31 -58 16 -30 58 -84 94
-121 167 -170 415 -206 632 -92 314 165 377 596 124 849 -102 102 -229 154
-376 154 -155 0 -257 -41 -371 -148 -108 -101 -169 -241 -169 -392 l0 -65
-746 -184 c-410 -100 -747 -181 -749 -179 -2 2 577 475 1288 1050 1216 985
1293 1046 1312 1032 64 -47 115 -77 165 -95 236 -90 500 -2 642 216 110 168
110 401 0 570 -118 183 -335 281 -542 245z m120 -170 c130 -25 246 -112 303
-229 30 -62 32 -72 32 -176 0 -108 -1 -113 -38 -187 -44 -91 -102 -146 -197
-192 -60 -29 -73 -31 -171 -31 -102 0 -107 1 -183 38 -66 33 -85 49 -136 113
-109 137 -126 285 -50 439 38 80 110 151 186 187 95 44 165 55 254 38z m-7963
-1170 c87 -43 156 -112 196 -198 30 -63 32 -74 32 -177 0 -109 0 -111 -38
-180 -51 -93 -107 -149 -192 -191 -303 -150 -651 122 -581 455 32 152 128 259
281 314 39 14 71 17 142 14 80 -4 102 -9 160 -37z m7018 -860 c223 -36 383
-256 345 -473 -24 -137 -112 -253 -238 -313 -75 -37 -212 -45 -293 -19 -191
62 -302 233 -287 443 13 173 160 332 336 362 67 11 70 11 137 0z m-3592 -234
c407 -105 724 -440 801 -846 21 -107 21 -315 1 -412 -48 -228 -169 -449 -328
-594 -539 -494 -1390 -337 -1717 316 -125 248 -146 563 -56 826 132 388 467
670 872 734 105 16 317 5 427 -24z m-3009 -1874 c162 -76 255 -231 244 -407
-19 -294 -329 -472 -594 -341 -243 121 -307 435 -130 642 117 137 319 181 480
106z m10271 -57 c161 -42 274 -166 306 -336 42 -232 -139 -462 -376 -477 -196
-12 -369 104 -425 286 -24 76 -25 132 -5 226 18 84 48 138 113 198 110 103
246 139 387 103z"/>
    <path d="M4980 1274 c-45 -20 -68 -41 -91 -86 -42 -82 -13 -204 59 -253 42
-28 89 -31 167 -11 l50 13 3 52 c3 43 6 51 23 51 10 0 19 7 19 15 0 12 -16 15
-80 15 -64 0 -80 -3 -80 -15 0 -9 9 -15 25 -15 22 0 25 -4 25 -33 0 -64 -74
-91 -118 -44 -54 58 -56 203 -3 268 41 51 133 15 147 -58 3 -18 12 -33 20 -33
11 0 14 17 14 69 0 72 -12 96 -33 67 -11 -15 -16 -16 -49 -1 -45 18 -54 18
-98 -1z"/>
    <path d="M2020 1266 c0 -8 10 -16 23 -18 21 -3 22 -7 25 -115 3 -134 -5 -177
-36 -181 -12 -2 -22 -10 -22 -18 0 -11 16 -14 70 -14 56 0 70 3 70 15 0 8 -9
15 -20 15 -26 0 -31 25 -28 143 l3 98 96 -133 c52 -73 103 -134 112 -136 15
-3 17 10 17 132 0 144 8 185 40 193 11 3 20 12 20 19 0 11 -17 14 -70 14 -54
0 -70 -3 -70 -14 0 -8 9 -18 20 -21 26 -8 32 -34 28 -125 l-3 -75 -83 118 -84
117 -54 0 c-40 0 -54 -4 -54 -14z"/>
    <path d="M2540 1266 c0 -8 10 -16 23 -18 22 -3 22 -6 25 -150 l3 -148 -26 0
c-16 0 -25 -6 -25 -15 0 -13 22 -15 140 -15 l140 0 2 45 c1 25 2 55 2 67 2 38
-22 31 -30 -9 -10 -57 -29 -73 -86 -73 l-48 0 0 65 c0 59 2 65 21 65 14 0 24
-10 32 -30 21 -56 37 -36 37 45 0 60 -3 75 -15 75 -8 0 -15 -6 -15 -14 0 -19
-27 -46 -46 -46 -11 0 -14 16 -14 71 l0 72 45 -6 c58 -6 85 -30 85 -74 0 -23
5 -33 15 -33 12 0 15 14 15 70 l0 70 -140 0 c-115 0 -140 -3 -140 -14z"/>
    <path d="M2980 1265 c0 -8 8 -15 18 -15 15 0 29 -31 72 -170 32 -100 59 -170
66 -170 7 0 24 38 39 86 48 156 42 154 84 30 20 -61 41 -112 48 -114 7 -2 26
42 48 115 48 155 73 211 96 218 10 4 19 13 19 21 0 12 -13 14 -67 12 -42 -2
-68 -8 -71 -15 -2 -7 3 -13 11 -13 35 0 39 -26 17 -107 -12 -43 -25 -82 -28
-87 -5 -8 -31 61 -67 175 -5 15 -2 19 15 19 13 0 20 5 18 13 -3 8 -30 13 -76
15 -60 2 -72 0 -72 -13 0 -8 9 -15 20 -15 32 0 36 -57 9 -137 l-22 -68 -28 83
c-16 46 -31 92 -34 103 -5 15 -2 19 14 19 12 0 21 7 21 15 0 12 -15 15 -75 15
-60 0 -75 -3 -75 -15z"/>
    <path d="M3900 1265 c0 -8 9 -15 20 -15 19 0 20 -7 20 -150 0 -143 -1 -150
-20 -150 -11 0 -20 -7 -20 -15 0 -13 22 -15 140 -15 l140 0 0 71 c0 52 -3 70
-12 67 -7 -3 -14 -21 -16 -41 -4 -47 -32 -67 -94 -67 l-48 0 0 65 c0 63 1 65
26 65 19 0 28 -7 36 -30 17 -50 33 -29 36 48 3 81 -10 94 -40 41 -12 -19 -24
-29 -35 -27 -15 3 -18 14 -18 68 l0 65 49 -1 c56 -1 86 -26 86 -75 0 -20 5
-29 15 -29 13 0 15 12 13 68 l-3 67 -137 3 c-118 2 -138 0 -138 -13z"/>
    <path d="M4360 1265 c0 -8 9 -15 20 -15 19 0 20 -7 20 -134 0 -148 -3 -166
-31 -166 -10 0 -19 -7 -19 -15 0 -12 14 -15 70 -15 54 0 70 3 70 14 0 8 -10
16 -22 18 -14 2 -25 13 -29 28 -10 34 -11 210 -1 210 4 -1 50 -61 102 -135 59
-84 102 -135 113 -135 15 0 17 13 17 138 0 160 4 180 36 188 13 3 24 13 24 21
0 19 -141 15 -148 -4 -2 -7 3 -13 11 -13 36 0 47 -29 47 -122 l0 -91 -87 121
-86 122 -54 0 c-40 0 -53 -4 -53 -15z"/>
    <path d="M5360 1265 c0 -8 9 -15 20 -15 19 0 20 -7 20 -150 0 -143 -1 -150
-20 -150 -11 0 -20 -7 -20 -15 0 -13 22 -15 140 -15 l140 0 0 70 c0 56 -3 70
-15 70 -10 0 -15 -11 -15 -35 0 -52 -28 -75 -90 -75 l-50 0 0 150 0 150 25 0
c16 0 25 6 25 15 0 12 -16 15 -80 15 -64 0 -80 -3 -80 -15z"/>
    <path d="M5905 1143 c-59 -171 -70 -193 -95 -193 -11 0 -20 -7 -20 -15 0 -12
14 -15 70 -15 56 0 70 3 70 15 0 8 -9 15 -20 15 -15 0 -20 7 -20 29 0 52 8 61
57 61 41 0 45 -2 59 -35 18 -44 18 -55 -1 -55 -8 0 -15 -7 -15 -15 0 -12 15
-15 75 -15 58 0 75 3 75 14 0 8 -10 16 -21 18 -17 2 -28 22 -55 98 -67 187
-86 230 -99 230 -7 0 -32 -58 -60 -137z m69 -50 c7 -21 4 -23 -28 -23 l-35 0
16 46 c16 46 16 46 28 23 7 -13 16 -34 19 -46z"/>
    <path d="M6290 1266 c0 -8 10 -16 23 -18 21 -3 22 -7 25 -115 3 -134 -5 -177
-36 -181 -12 -2 -22 -10 -22 -18 0 -11 16 -14 70 -14 56 0 70 3 70 15 0 8 -9
15 -20 15 -26 0 -31 25 -28 144 l3 98 95 -133 c53 -74 104 -135 113 -137 15
-3 17 10 18 130 1 153 6 179 37 193 45 20 25 35 -48 35 -52 0 -70 -3 -70 -13
0 -8 11 -19 25 -25 24 -11 25 -15 25 -104 0 -53 -4 -88 -9 -82 -5 5 -43 57
-85 117 l-77 107 -55 0 c-40 0 -54 -4 -54 -14z"/>
    <path d="M6810 1267 c0 -9 10 -17 23 -19 22 -3 22 -6 25 -150 l3 -148 -26 0
c-16 0 -25 -6 -25 -16 0 -14 16 -15 123 -12 117 3 126 5 159 30 99 76 83 250
-29 304 -53 25 -253 34 -253 11z m203 -30 c44 -19 55 -35 67 -95 22 -116 -20
-192 -106 -192 l-44 0 0 150 0 150 25 0 c14 0 40 -6 58 -13z"/>
  </g>
  <!-- Gold elements: "RUBBER & PLASTICS GROUP INC" text -->
  <g transform="translate(0.000000,746.000000) scale(0.100000,-0.100000)" fill="#FFAE00">
    <path d="M5049 611 c-33 -33 -38 -83 -15 -136 12 -29 11 -31 -20 -52 -47 -32
-61 -82 -37 -130 24 -50 69 -74 137 -74 30 0 64 5 75 11 16 8 27 8 42 -1 32
-17 88 -13 111 7 33 31 52 74 38 88 -9 8 -14 8 -17 -1 -7 -19 -44 -63 -53 -63
-4 0 -18 8 -30 18 l-21 17 27 49 c15 27 40 56 56 65 51 29 35 41 -52 41 -60 0
-80 -3 -80 -13 0 -8 12 -19 26 -26 23 -10 26 -16 20 -44 -11 -54 -22 -52 -71
14 -41 58 -44 65 -28 74 74 42 96 113 48 160 -19 20 -34 25 -75 25 -44 0 -56
-5 -81 -29z m110 -30 c10 -23 9 -35 -3 -66 -20 -46 -36 -42 -60 18 -16 38 -17
49 -6 61 21 26 56 20 69 -13z m-30 -250 c54 -68 54 -81 0 -81 -61 0 -106 79
-80 137 13 29 10 32 80 -56z"/>
    <path d="M6675 470 c-64 -186 -76 -210 -106 -210 -10 0 -19 -7 -19 -15 0 -12
16 -15 81 -15 60 0 80 3 77 13 -3 6 -14 13 -26 15 -18 3 -22 10 -22 40 0 56 9
64 70 60 l52 -3 19 -47 c18 -47 18 -48 -1 -48 -11 0 -20 -7 -20 -15 0 -12 16
-15 86 -15 64 0 85 3 82 13 -3 6 -14 13 -26 15 -22 3 -22 3 -115 257 -25 66
-51 121 -58 123 -10 2 -32 -50 -74 -168z m73 -17 l20 -53 -39 0 c-21 0 -39 4
-39 8 0 13 32 103 35 100 2 -2 12 -27 23 -55z"/>
    <path d="M7088 611 c-29 -26 -33 -36 -33 -79 0 -65 18 -85 123 -133 101 -47
119 -79 74 -131 -10 -12 -30 -18 -60 -18 -37 0 -50 6 -78 34 -21 21 -34 44
-34 60 0 24 -24 46 -36 33 -9 -9 9 -157 19 -157 5 0 15 8 22 17 11 14 15 15
29 4 25 -21 83 -30 125 -19 53 13 82 47 88 101 8 71 -12 97 -117 152 -103 52
-126 81 -95 115 30 34 90 27 131 -14 21 -21 34 -44 34 -59 0 -28 17 -44 30
-31 14 14 0 154 -15 154 -7 0 -16 -7 -19 -15 -5 -14 -9 -14 -35 0 -17 8 -50
15 -75 15 -36 0 -52 -6 -78 -29z"/>
    <path d="M8268 615 c-90 -61 -120 -188 -67 -290 48 -94 154 -137 225 -90 27
17 27 17 45 -6 22 -30 26 -21 32 79 4 65 3 72 -14 72 -12 0 -19 -7 -19 -20 0
-29 -26 -76 -52 -94 -12 -9 -39 -16 -59 -16 -29 0 -43 7 -62 30 -60 71 -57
241 5 308 50 52 152 10 164 -69 4 -23 12 -39 20 -39 11 0 14 19 14 80 0 81 -9
98 -35 63 -11 -15 -14 -15 -36 0 -37 27 -117 22 -161 -8z"/>
    <path d="M8692 624 c-27 -19 -52 -65 -52 -96 0 -50 37 -87 124 -128 86 -39
112 -65 101 -100 -16 -50 -76 -65 -135 -35 -32 16 -60 61 -60 95 0 12 -7 20
-17 20 -16 0 -18 -9 -15 -80 4 -80 13 -96 37 -64 11 15 14 15 36 1 52 -34 132
-26 175 17 30 30 34 40 34 84 0 66 -16 84 -125 141 -78 40 -90 50 -93 74 -2
16 2 35 9 43 14 17 68 18 103 2 24 -10 66 -79 66 -106 0 -7 7 -12 15 -12 16 0
21 68 9 129 -7 33 -28 42 -38 16 -5 -14 -9 -14 -35 0 -39 19 -110 19 -139 -1z"/>
    <path d="M9385 621 c-119 -74 -142 -244 -47 -344 58 -61 108 -71 215 -42 l67
18 0 53 c0 47 2 53 22 56 13 2 24 11 26 21 3 15 -6 17 -87 17 -84 0 -91 -1
-91 -20 0 -15 7 -20 25 -20 22 0 25 -4 25 -38 0 -49 -24 -72 -74 -72 -67 0
-106 65 -106 179 0 115 40 181 110 181 51 0 95 -39 105 -93 4 -22 13 -37 21
-37 11 0 14 18 14 80 0 63 -3 80 -15 80 -7 0 -18 -7 -23 -16 -9 -16 -11 -16
-33 0 -32 22 -116 21 -154 -3z"/>
    <path d="M10317 619 c-74 -39 -116 -144 -96 -238 21 -100 95 -163 189 -163 57
0 99 20 138 67 85 104 60 268 -52 336 -42 26 -128 25 -179 -2z m157 -40 c33
-39 41 -68 41 -149 0 -81 -8 -110 -41 -149 -28 -33 -75 -42 -116 -20 -76 41
-77 294 -1 338 10 6 34 11 55 11 28 0 42 -7 62 -31z"/>
    <path d="M2020 615 c0 -9 9 -15 25 -15 l25 0 0 -170 0 -170 -25 0 c-16 0 -25
-6 -25 -15 0 -12 17 -15 90 -15 73 0 90 3 90 15 0 9 -9 15 -25 15 -24 0 -25 2
-25 75 l0 75 34 0 c46 0 62 -18 69 -82 8 -65 34 -102 75 -106 22 -2 34 3 46
20 20 29 21 68 1 68 -8 0 -15 -9 -15 -19 0 -11 -4 -22 -9 -25 -12 -8 -21 19
-21 66 0 31 -7 46 -30 69 l-30 30 30 26 c55 46 35 136 -37 164 -13 5 -74 9
-134 9 -90 0 -109 -3 -109 -15z m210 -35 c25 -25 27 -91 4 -114 -8 -9 -31 -16
-50 -16 l-34 0 0 75 0 75 30 0 c17 0 39 -9 50 -20z"/>
    <path d="M2450 615 c0 -10 10 -15 30 -15 l30 0 0 -145 c0 -163 8 -193 61 -221
67 -34 182 -13 211 39 7 13 15 79 18 158 6 142 14 169 51 169 11 0 19 7 19 15
0 12 -16 15 -80 15 -64 0 -80 -3 -80 -15 0 -8 9 -15 20 -15 34 0 42 -34 38
-172 -3 -128 -3 -130 -31 -154 -30 -25 -83 -32 -117 -14 -30 16 -40 67 -40
206 l0 134 25 0 c16 0 25 6 25 15 0 12 -17 15 -90 15 -73 0 -90 -3 -90 -15z"/>
    <path d="M2960 615 c0 -9 9 -15 25 -15 l25 0 0 -170 0 -170 -25 0 c-16 0 -25
-6 -25 -16 0 -14 17 -15 136 -12 l136 3 29 33 c49 54 31 147 -31 167 -19 6
-18 8 10 32 52 43 38 122 -25 149 -50 21 -255 20 -255 -1z m211 -25 c14 -8 19
-21 19 -52 0 -52 -22 -78 -67 -78 l-33 0 0 70 0 70 31 0 c17 0 39 -5 50 -10z
m-12 -171 c37 -13 51 -35 51 -81 0 -54 -23 -78 -76 -78 l-44 0 0 85 c0 94 3
97 69 74z"/>
    <path d="M3390 615 c0 -9 9 -15 25 -15 l25 0 0 -170 0 -170 -25 0 c-16 0 -25
-6 -25 -16 0 -14 17 -15 134 -12 134 3 135 3 165 32 26 25 31 38 31 74 0 38
-5 50 -34 77 l-35 33 25 23 c16 15 24 33 24 56 0 81 -42 103 -200 103 -91 0
-110 -3 -110 -15z m210 -25 c24 -13 35 -63 19 -92 -16 -31 -28 -38 -66 -38
l-33 0 0 70 0 70 31 0 c17 0 39 -4 49 -10z m-11 -171 c37 -13 51 -35 51 -81 0
-54 -23 -78 -76 -78 l-44 0 0 85 c0 94 3 97 69 74z"/>
    <path d="M3820 615 c0 -9 9 -15 25 -15 l25 0 0 -170 0 -170 -25 0 c-16 0 -25
-6 -25 -15 0 -13 24 -15 160 -15 l160 0 0 75 c0 60 -3 75 -15 75 -11 0 -15
-11 -15 -35 0 -56 -35 -85 -105 -85 l-55 0 0 80 c0 66 3 80 16 80 29 0 54 -21
54 -45 0 -16 6 -25 15 -25 12 0 15 16 15 85 0 69 -3 85 -15 85 -9 0 -15 -9
-15 -23 0 -29 -18 -47 -47 -47 -22 0 -23 3 -23 75 l0 75 54 0 c69 0 95 -20
103 -78 3 -26 11 -42 19 -42 10 0 14 16 14 59 0 96 9 91 -166 91 -130 0 -154
-2 -154 -15z"/>
    <path d="M4252 618 c3 -7 17 -14 31 -16 l27 -3 0 -169 0 -169 -27 -3 c-14 -2
-28 -9 -31 -15 -3 -10 20 -13 93 -13 73 0 96 3 93 13 -3 6 -14 13 -26 15 -20
3 -22 9 -22 78 l0 74 33 0 c47 0 56 -10 68 -76 17 -92 33 -114 81 -114 31 0
58 32 58 67 0 30 -28 30 -32 0 -6 -43 -23 -21 -29 38 -5 47 -12 64 -33 81
l-26 23 30 30 c41 40 41 88 1 133 l-29 33 -132 3 c-107 3 -131 1 -128 -10z
m218 -38 c25 -25 27 -86 3 -112 -9 -10 -30 -18 -50 -18 l-33 0 0 75 0 75 30 0
c17 0 39 -9 50 -20z"/>
    <path d="M5722 618 c3 -7 17 -14 31 -16 l27 -3 0 -169 0 -169 -27 -3 c-14 -2
-28 -9 -31 -15 -3 -10 20 -13 92 -13 79 0 96 3 96 15 0 10 -10 15 -30 15 l-30
0 0 63 0 62 53 1 c63 1 111 24 132 64 33 63 10 132 -55 165 -38 20 -264 22
-258 3z m215 -33 c24 -17 39 -71 29 -109 -9 -38 -34 -56 -77 -56 l-39 0 0 90
0 90 33 0 c18 0 42 -7 54 -15z"/>
    <path d="M6140 615 c0 -9 9 -15 25 -15 l25 0 0 -170 0 -170 -25 0 c-16 0 -25
-6 -25 -15 0 -13 24 -15 154 -15 l154 0 6 31 c3 17 6 51 6 75 0 58 -25 61 -34
4 -9 -60 -35 -80 -101 -80 l-55 0 0 170 0 170 25 0 c16 0 25 6 25 15 0 12 -17
15 -90 15 -73 0 -90 -3 -90 -15z"/>
    <path d="M7440 555 c0 -60 3 -75 15 -75 10 0 15 10 15 34 0 48 33 86 76 86
l34 0 0 -170 0 -170 -25 0 c-16 0 -25 -6 -25 -15 0 -12 17 -15 90 -15 73 0 90
3 90 15 0 10 -10 15 -30 15 l-30 0 0 170 0 170 33 0 c48 0 69 -20 76 -71 4
-30 11 -44 21 -44 8 0 15 6 14 13 -1 6 -2 39 -2 72 l-2 60 -175 0 -175 0 0
-75z"/>
    <path d="M7892 618 c3 -7 17 -14 31 -16 l27 -3 0 -169 0 -169 -27 -3 c-14 -2
-28 -9 -31 -15 -3 -10 20 -13 93 -13 73 0 96 3 93 13 -3 6 -17 13 -31 15 l-27
3 0 169 0 169 27 3 c14 2 28 9 31 16 3 9 -20 12 -93 12 -73 0 -96 -3 -93 -12z"/>
    <path d="M9752 618 c3 -7 17 -14 31 -16 l27 -3 0 -169 0 -169 -27 -3 c-14 -2
-28 -9 -31 -15 -3 -10 20 -13 93 -13 73 0 96 3 93 13 -3 6 -17 13 -31 15 -27
3 -27 4 -27 78 l0 75 42 -3 c49 -3 64 -23 73 -101 7 -57 33 -87 74 -87 34 0
49 15 57 58 5 25 3 32 -9 32 -8 0 -18 -11 -21 -25 -10 -40 -23 -21 -28 42 -4
45 -10 61 -31 79 l-27 23 30 30 c41 40 41 88 1 133 l-29 33 -132 3 c-107 3
-131 1 -128 -10z m218 -38 c24 -24 26 -77 4 -108 -11 -16 -25 -22 -55 -22
l-39 0 0 75 0 75 35 0 c22 0 43 -8 55 -20z"/>
    <path d="M10700 615 c0 -9 9 -15 24 -15 l25 0 3 -149 c3 -164 12 -190 73 -220
38 -18 130 -17 160 3 51 33 59 60 65 205 3 75 9 142 13 149 5 6 17 12 28 12
10 0 19 7 19 15 0 12 -16 15 -80 15 -64 0 -80 -3 -80 -15 0 -9 9 -15 24 -15
33 0 46 -42 46 -150 0 -111 -7 -144 -36 -175 -34 -36 -104 -36 -133 1 -19 24
-21 40 -21 175 l0 149 25 0 c16 0 25 6 25 15 0 12 -17 15 -90 15 -73 0 -90 -3
-90 -15z"/>
    <path d="M11202 618 c3 -7 17 -14 31 -16 l27 -3 0 -169 0 -169 -27 -3 c-14 -2
-28 -9 -31 -15 -3 -10 20 -13 92 -13 79 0 96 3 96 15 0 10 -10 15 -30 15 l-31
0 3 61 3 61 50 2 c92 5 145 52 145 129 0 39 -28 80 -70 102 -38 20 -264 22
-258 3z m225 -44 c22 -22 25 -32 21 -76 -6 -60 -24 -78 -80 -78 l-38 0 0 90 0
90 35 0 c25 0 44 -8 62 -26z"/>
    <path d="M12195 441 c-56 -23 -82 -92 -58 -152 19 -48 53 -68 116 -67 l47 1 0
44 c0 49 -13 56 -32 16 -16 -34 -56 -43 -75 -17 -7 10 -13 41 -13 69 0 65 25
95 64 77 14 -6 26 -21 28 -33 2 -12 9 -24 16 -27 8 -2 12 11 12 47 0 47 -10
65 -25 41 -4 -7 -12 -7 -25 0 -22 12 -28 12 -55 1z"/>
    <path d="M11700 430 c0 -6 7 -13 15 -16 12 -5 15 -24 15 -85 0 -64 -3 -79 -15
-79 -8 0 -15 -4 -15 -10 0 -5 25 -10 55 -10 30 0 55 5 55 10 0 6 -7 10 -15 10
-12 0 -15 15 -15 79 0 61 3 80 15 85 33 12 12 26 -40 26 -31 0 -55 -4 -55 -10z"/>
    <path d="M11860 425 c0 -8 7 -15 15 -15 12 0 15 -14 15 -69 0 -49 -5 -74 -15
-85 -23 -22 -19 -26 30 -26 25 0 45 5 45 10 0 6 -6 10 -14 10 -10 0 -17 15
-21 44 -13 85 -3 86 54 9 71 -98 81 -96 81 17 0 73 3 90 15 90 8 0 15 7 15 15
0 11 -12 15 -45 15 -44 0 -60 -15 -30 -26 10 -4 15 -20 15 -52 l0 -46 -42 62
c-40 57 -46 61 -80 62 -27 0 -38 -4 -38 -15z"/>
  </g>
</svg>
